<svg xmlns="http://www.w3.org/2000/svg" viewBox="0 0 1600 900" role="img" aria-label="خلفية روحانية">
  <defs>
    <linearGradient id="bg" x1="0" y1="0" x2="1" y2="1">
      <stop offset="0%" stop-color="#4a5f33"/>
      <stop offset="100%" stop-color="#28351d"/>
    </linearGradient>
    <radialGradient id="light" cx="70%" cy="30%" r="45%">
      <stop offset="0%" stop-color="#d4b77a" stop-opacity="0.55"/>
      <stop offset="100%" stop-color="#d4b77a" stop-opacity="0"/>
    </radialGradient>
  </defs>
  <rect width="1600" height="900" fill="url(#bg)"/>
  <rect width="1600" height="900" fill="url(#light)"/>
  <g fill="#ffffff" opacity="0.15">
    <path d="M550 650h500v80H550z"/>
    <path d="M640 650V470c0-80 65-145 145-145s145 65 145 145v180z"/>
    <circle cx="800" cy="420" r="32"/>
    <rect x="780" y="360" width="40" height="180"/>
    <rect x="700" y="560" width="55" height="90"/>
    <rect x="845" y="560" width="55" height="90"/>
  </g>
  <g stroke="#ffffff" opacity="0.12" fill="none">
    <path d="M0 150H1600M0 300H1600M0 450H1600M0 600H1600M0 750H1600"/>
  </g>
</svg>
